<svg width="25" height="21" viewBox="0 0 25 21" fill="none" xmlns="http://www.w3.org/2000/svg">
<path d="M21.0529 0.794922H4.06666C3.1013 0.794922 2.17547 1.17841 1.49286 1.86102C0.810246 2.54364 0.426758 3.46946 0.426758 4.43482V16.5678C0.426758 17.5332 0.810246 18.459 1.49286 19.1416C2.17547 19.8242 3.1013 20.2077 4.06666 20.2077H21.0529C22.0182 20.2077 22.9441 19.8242 23.6267 19.1416C24.3093 18.459 24.6928 17.5332 24.6928 16.5678V4.43482C24.6928 3.46946 24.3093 2.54364 23.6267 1.86102C22.9441 1.17841 22.0182 0.794922 21.0529 0.794922ZM20.5554 3.22152L13.4212 10.3557C13.3084 10.4694 13.1742 10.5597 13.0264 10.6213C12.8785 10.6829 12.7199 10.7146 12.5598 10.7146C12.3996 10.7146 12.241 10.6829 12.0932 10.6213C11.9453 10.5597 11.8111 10.4694 11.6983 10.3557L4.56411 3.22152H20.5554ZM22.2662 16.5678C22.2662 16.8896 22.1383 17.1982 21.9108 17.4258C21.6833 17.6533 21.3747 17.7811 21.0529 17.7811H4.06666C3.74487 17.7811 3.43626 17.6533 3.20873 17.4258C2.98119 17.1982 2.85336 16.8896 2.85336 16.5678V4.93228L9.98757 12.0665C10.67 12.7481 11.5952 13.131 12.5598 13.131C13.5243 13.131 14.4495 12.7481 15.132 12.0665L22.2662 4.93228V16.5678Z" fill="white"/>
</svg>
