<svg width="28" height="28" viewBox="0 0 28 28" fill="none" xmlns="http://www.w3.org/2000/svg">
<path d="M1.33321 9.8135L13.3332 16.7468C13.5359 16.8639 13.7658 16.9255 13.9999 16.9255C14.2339 16.9255 14.4639 16.8639 14.6665 16.7468L26.6665 9.8135C26.8681 9.69716 27.0356 9.53011 27.1526 9.32895C27.2695 9.12779 27.3318 8.89952 27.3332 8.66683C27.3341 8.43189 27.273 8.20087 27.1559 7.99716C27.0388 7.79346 26.87 7.62431 26.6665 7.50684L14.6665 0.586836C14.4639 0.469812 14.2339 0.408203 13.9999 0.408203C13.7658 0.408203 13.5359 0.469812 13.3332 0.586836L1.33321 7.50684C1.12974 7.62431 0.96092 7.79346 0.843849 7.99716C0.726778 8.20087 0.665612 8.43189 0.666545 8.66683C0.667949 8.89952 0.730223 9.12779 0.847177 9.32895C0.964132 9.53011 1.13169 9.69716 1.33321 9.8135ZM13.9999 3.3335L23.3332 8.66683L13.9999 14.0002L4.66654 8.66683L13.9999 3.3335ZM25.3332 12.8935L13.9999 19.3335L2.66654 12.8402C2.51437 12.752 2.34625 12.6948 2.17188 12.6719C1.99751 12.649 1.82033 12.6608 1.65054 12.7067C1.48075 12.7525 1.32172 12.8315 1.18259 12.9391C1.04346 13.0467 0.926985 13.1807 0.839878 13.3335C0.666048 13.6397 0.62036 14.0021 0.712782 14.3419C0.805205 14.6816 1.02824 14.9709 1.33321 15.1468L13.3332 22.0802C13.5359 22.1972 13.7658 22.2588 13.9999 22.2588C14.2339 22.2588 14.4639 22.1972 14.6665 22.0802L26.6665 15.1468C26.9715 14.9709 27.1946 14.6816 27.287 14.3419C27.3794 14.0021 27.3337 13.6397 27.1599 13.3335C27.0728 13.1807 26.9563 13.0467 26.8172 12.9391C26.678 12.8315 26.519 12.7525 26.3492 12.7067C26.1794 12.6608 26.0022 12.649 25.8279 12.6719C25.6535 12.6948 25.4854 12.752 25.3332 12.8402V12.8935ZM25.3332 18.2268L13.9999 24.6668L2.66654 18.1735C2.51437 18.0853 2.34625 18.0282 2.17188 18.0053C1.99751 17.9823 1.82033 17.9942 1.65054 18.04C1.48075 18.0859 1.32172 18.1649 1.18259 18.2724C1.04346 18.38 0.926985 18.5141 0.839878 18.6668C0.666048 18.973 0.62036 19.3355 0.712782 19.6752C0.805205 20.0149 1.02824 20.3043 1.33321 20.4802L13.3332 27.4135C13.5359 27.5305 13.7658 27.5921 13.9999 27.5921C14.2339 27.5921 14.4639 27.5305 14.6665 27.4135L26.6665 20.4802C26.9715 20.3043 27.1946 20.0149 27.287 19.6752C27.3794 19.3355 27.3337 18.973 27.1599 18.6668C27.0728 18.5141 26.9563 18.38 26.8172 18.2724C26.678 18.1649 26.519 18.0859 26.3492 18.04C26.1794 17.9942 26.0022 17.9823 25.8279 18.0053C25.6535 18.0282 25.4854 18.0853 25.3332 18.1735V18.2268Z" fill="white"/>
</svg>
