
<svg width="35" height="35" viewBox="0 0 35 35" fill="none" xmlns="http://www.w3.org/2000/svg">
<path d="M4.87725 20.8732L4.27735 20.2733L6.55725 17.9938L7.15715 18.5937L4.87725 20.8732ZM19.8429 4.68573L20.4428 5.28493L18.2451 7.48398L17.6453 6.88443L19.8429 4.68573ZM1.75 12.7973H5.14325V13.6457H1.75V12.7973ZM20.413 12.7973H23.8063V13.6457H20.413V12.7973ZM6.49845 7.51898L4.2518 5.27198L4.85205 4.67208L7.0987 6.91908L6.49845 7.51898ZM12.2007 10.3729L10.3922 12.1813C10.3134 12.2601 10.2509 12.3536 10.2082 12.4565C10.1655 12.5595 10.1436 12.6698 10.1436 12.7812C10.1436 12.8927 10.1655 13.003 10.2082 13.1059C10.2509 13.2089 10.3134 13.3024 10.3922 13.3811L29.9932 32.9822C30.3243 33.3136 30.8612 33.3136 31.1931 32.9822L33.0015 31.1737C33.0803 31.095 33.1428 31.0015 33.1855 30.8985C33.2282 30.7956 33.2501 30.6853 33.2501 30.5738C33.2501 30.4624 33.2282 30.3521 33.1855 30.2491C33.1428 30.1462 33.0803 30.0527 33.0015 29.9739L13.4004 10.3729C13.3217 10.294 13.2282 10.2314 13.1253 10.1887C13.0224 10.146 12.912 10.124 12.8006 10.124C12.6891 10.124 12.5787 10.146 12.4758 10.1887C12.3729 10.2314 12.2794 10.294 12.2007 10.3729ZM15.7206 17.7551L10.7754 12.811L12.817 10.7691L17.7621 15.7139L15.7206 17.7551ZM11.9301 1.76953H12.7785V5.16278H11.9301V1.76953ZM11.9301 20.4326H12.7785V23.8258H11.9301V20.4326Z" fill="white"/>
</svg>
