<svg width="22" height="24" viewBox="0 0 22 24" fill="none" xmlns="http://www.w3.org/2000/svg">
<path d="M11 0.900391C13.1964 0.900512 15.3026 1.78012 16.8555 3.3457L17.1387 3.64551C18.514 5.1769 19.2812 7.17266 19.2812 9.24805V12.0439L19.2842 12.2061C19.3018 12.584 19.3844 12.9564 19.5283 13.3066L19.5938 13.4551C19.7314 13.7482 19.9114 14.019 20.1279 14.2588L20.2393 14.376L20.3867 14.5361C20.7172 14.9223 20.9448 15.3891 21.0439 15.8916C21.1431 16.3939 21.1106 16.9124 20.9521 17.3965L20.877 17.6016C20.6825 18.0748 20.3694 18.4879 19.9707 18.8018L19.7949 18.9307C19.3723 19.2154 18.8845 19.3842 18.3799 19.4219L18.1631 19.4297H15.5342C15.3088 20.4557 14.7479 21.3767 13.9395 22.043C13.11 22.7264 12.0715 23.0995 11 23.0996C9.92832 23.0996 8.88917 22.7266 8.05957 22.043C7.25108 21.3767 6.69018 20.4557 6.46484 19.4297H3.83691C3.32837 19.4297 2.82994 19.2963 2.38965 19.0449L2.20508 18.9307C1.78238 18.6459 1.44138 18.2561 1.21387 17.8008L1.12305 17.6016C0.900955 17.0608 0.842797 16.4656 0.956055 15.8916L1.00684 15.6787C1.14186 15.1876 1.40044 14.7382 1.75977 14.376H1.76074L1.87109 14.2588C2.12373 13.979 2.32676 13.657 2.4707 13.3066L2.52832 13.1553C2.65459 12.799 2.71971 12.4231 2.71875 12.0439V9.24805L2.72852 8.83398C2.83012 6.77102 3.68782 4.81341 5.14355 3.3457L5.44141 3.05957C6.96044 1.67304 8.94086 0.900391 11 0.900391ZM8.58691 19.4297C8.77586 19.8879 9.08758 20.2849 9.49023 20.5732L9.65918 20.6846C10.063 20.929 10.5257 21.0594 10.999 21.0615C11.5402 21.0593 12.0674 20.8892 12.5088 20.5732L12.6699 20.4492C12.9957 20.1755 13.25 19.8252 13.4131 19.4297H8.58691ZM11 2.93262C9.44291 2.93262 7.94488 3.51746 6.7959 4.56641L6.57129 4.78223C5.39667 5.96646 4.73639 7.57294 4.73633 9.24805V12.043L4.73047 12.3057C4.70606 12.8292 4.60468 13.3462 4.42969 13.8398L4.33594 14.084C4.07006 14.731 3.68012 15.3195 3.1875 15.8135L3.18652 15.8125C3.09006 15.9097 3.01735 16.0277 2.97168 16.1562L2.93555 16.2881C2.90003 16.4681 2.91772 16.6547 2.9873 16.8242L3.04883 16.9463C3.11853 17.0635 3.21363 17.1638 3.32715 17.2402C3.47824 17.3419 3.65542 17.3965 3.83691 17.3965H18.1621L18.2969 17.3867C18.4306 17.3668 18.5594 17.3166 18.6729 17.2402L18.7793 17.1562C18.8795 17.0646 18.9595 16.9514 19.0117 16.8242C19.0639 16.6971 19.0867 16.5602 19.0801 16.4238L19.0635 16.2881C19.0279 16.108 18.9402 15.9421 18.8115 15.8125V15.8135C18.3805 15.3812 18.0282 14.8769 17.7686 14.3242L17.6631 14.084C17.3973 13.437 17.2609 12.7432 17.2627 12.043V9.24805C17.2626 7.67784 16.6827 6.1681 15.6426 5.00977L15.4277 4.78223C14.2532 3.59821 12.6606 2.93274 11 2.93262Z" fill="white" stroke="white" stroke-width="0.2"/>
</svg>
