<svg width="23" height="28" viewBox="0 0 23 28" fill="none" xmlns="http://www.w3.org/2000/svg">
<path d="M15.7322 6.9748C15.7322 7.23261 15.7146 7.49043 15.6824 7.74531C15.697 7.64277 15.7117 7.5373 15.7234 7.43476C15.6531 7.94453 15.5183 8.43964 15.322 8.91425C15.3601 8.8205 15.4011 8.72675 15.4392 8.633C15.2429 9.09589 14.991 9.52949 14.6834 9.92793L14.8679 9.69062C14.5632 10.0832 14.2088 10.4377 13.8162 10.7424L14.0535 10.5578C13.655 10.8625 13.2215 11.1174 12.7586 11.3137C12.8523 11.2756 12.9461 11.2346 13.0398 11.1965C12.5652 11.3928 12.0701 11.5275 11.5603 11.5978C11.6629 11.5832 11.7683 11.5686 11.8709 11.5568C11.3582 11.6242 10.8425 11.6242 10.3299 11.5568C10.4324 11.5715 10.5379 11.5861 10.6404 11.5978C10.1306 11.5275 9.63551 11.3928 9.1609 11.1965C9.25465 11.2346 9.3484 11.2756 9.44215 11.3137C8.97926 11.1174 8.54567 10.8654 8.14723 10.5578L8.38454 10.7424C7.99196 10.4377 7.63747 10.0832 7.33278 9.69062L7.51735 9.92793C7.21266 9.52949 6.95778 9.09589 6.76149 8.633C6.79958 8.72675 6.84059 8.8205 6.87868 8.91425C6.68239 8.43964 6.54762 7.94453 6.47731 7.43476C6.49196 7.5373 6.50661 7.64277 6.51833 7.74531C6.45094 7.23261 6.45094 6.71699 6.51833 6.20429C6.50368 6.30683 6.48903 6.4123 6.47731 6.51484C6.54762 6.00508 6.68239 5.50996 6.87868 5.03535C6.84059 5.1291 6.79958 5.22285 6.76149 5.3166C6.95778 4.85371 7.20973 4.42011 7.51735 4.02168L7.33278 4.25898C7.63747 3.8664 7.99196 3.51191 8.38454 3.20722L8.14723 3.39179C8.54567 3.08711 8.97926 2.83222 9.44215 2.63593C9.3484 2.67402 9.25465 2.71504 9.1609 2.75312C9.63551 2.55683 10.1306 2.42207 10.6404 2.35175C10.5379 2.3664 10.4324 2.38105 10.3299 2.39277C10.8425 2.32539 11.3582 2.32539 11.8709 2.39277C11.7683 2.37812 11.6629 2.36347 11.5603 2.35175C12.0701 2.42207 12.5652 2.55683 13.0398 2.75312C12.9461 2.71504 12.8523 2.67402 12.7586 2.63593C13.2215 2.83222 13.655 3.08418 14.0535 3.39179L13.8162 3.20722C14.2088 3.51191 14.5632 3.8664 14.8679 4.25898L14.6834 4.02168C14.9881 4.42011 15.2429 4.85371 15.4392 5.3166C15.4011 5.22285 15.3601 5.1291 15.322 5.03535C15.5183 5.50996 15.6531 6.00508 15.7234 6.51484C15.7088 6.4123 15.6941 6.30683 15.6824 6.20429C15.7146 6.45918 15.7293 6.71699 15.7322 6.9748C15.7351 7.58711 16.2683 8.17597 16.9041 8.14668C17.5369 8.11738 18.0789 7.63105 18.0759 6.9748C18.0701 5.57148 17.6482 4.13593 16.822 2.99336C16.5994 2.68574 16.3621 2.38398 16.0984 2.11152C15.8318 1.83613 15.5388 1.59882 15.2341 1.36738C14.6804 0.945504 14.0623 0.634957 13.406 0.394723C10.7605 -0.575003 7.57008 0.289256 5.78004 2.46894C5.53395 2.76777 5.29958 3.07832 5.10036 3.4123C4.90114 3.74336 4.74587 4.09492 4.60231 4.45234C4.33278 5.11445 4.19508 5.81758 4.13942 6.52949C4.03102 7.92402 4.3943 9.38007 5.12087 10.5754C5.82106 11.7297 6.87868 12.7199 8.11501 13.2795C8.47829 13.4436 8.85036 13.5959 9.23708 13.7043C9.62086 13.8098 10.0105 13.8684 10.406 13.9152C11.1267 14.0002 11.8621 13.9416 12.574 13.798C15.2781 13.2473 17.5427 10.9182 17.9617 8.18476C18.0232 7.78632 18.0701 7.38789 18.0701 6.98359C18.073 6.37129 17.5281 5.78242 16.8982 5.81172C16.2654 5.83222 15.7322 6.31855 15.7322 6.9748ZM19.6199 25.2941H4.58766C3.92262 25.2941 3.25758 25.3 2.59254 25.2941C2.5193 25.2941 2.44606 25.2883 2.37575 25.2795C2.47829 25.2941 2.58376 25.3088 2.68629 25.3205C2.56911 25.3029 2.45778 25.2707 2.34938 25.2268C2.44313 25.2648 2.53688 25.3059 2.63063 25.3439C2.51344 25.2941 2.40504 25.2297 2.30251 25.1506L2.53981 25.3352C2.45192 25.2619 2.36989 25.1828 2.29958 25.0949L2.48415 25.3322C2.40504 25.2297 2.34352 25.1213 2.29079 25.0041C2.32887 25.0978 2.36989 25.1916 2.40797 25.2854C2.36403 25.177 2.33473 25.0627 2.31422 24.9484C2.32887 25.051 2.34352 25.1564 2.35524 25.259C2.30836 24.9045 2.34059 24.5295 2.34059 24.1721V22.9182C2.34059 22.6047 2.35817 22.2941 2.39919 21.9836C2.38454 22.0861 2.36989 22.1916 2.35817 22.2941C2.4402 21.6936 2.5984 21.1047 2.83571 20.5451C2.79762 20.6389 2.75661 20.7326 2.71852 20.8264C2.94704 20.2932 3.24001 19.7922 3.5945 19.3322L3.40993 19.5695C3.76442 19.1154 4.17165 18.7053 4.62868 18.3508L4.39137 18.5353C4.85133 18.1809 5.35231 17.8879 5.88551 17.6594C5.79176 17.6975 5.69801 17.7385 5.60426 17.7766C6.16383 17.5422 6.74977 17.3811 7.35329 17.299C7.25075 17.3137 7.14528 17.3283 7.04274 17.34C7.47633 17.2844 7.907 17.2814 8.34352 17.2814H13.7049C14.1882 17.2814 14.6687 17.2785 15.1521 17.34C15.0496 17.3254 14.9441 17.3107 14.8416 17.299C15.4422 17.3811 16.031 17.5393 16.5906 17.7766C16.4968 17.7385 16.4031 17.6975 16.3093 17.6594C16.8425 17.8879 17.3435 18.1809 17.8035 18.5353L17.5662 18.3508C18.0203 18.7053 18.4304 19.1125 18.7849 19.5695L18.6004 19.3322C18.9548 19.7922 19.2478 20.2932 19.4763 20.8264C19.4382 20.7326 19.3972 20.6389 19.3591 20.5451C19.5935 21.1047 19.7547 21.6906 19.8367 22.2941C19.822 22.1916 19.8074 22.0861 19.7957 21.9836C19.8513 22.426 19.8543 22.8654 19.8543 23.3107V24.7609C19.8543 24.9279 19.8601 25.0949 19.8396 25.259C19.8543 25.1564 19.8689 25.051 19.8806 24.9484C19.8631 25.0656 19.8308 25.177 19.7869 25.2854C19.825 25.1916 19.866 25.0978 19.9041 25.0041C19.8543 25.1213 19.7898 25.2297 19.7107 25.3322L19.8953 25.0949C19.822 25.1828 19.7429 25.2648 19.655 25.3352L19.8923 25.1506C19.7898 25.2297 19.6814 25.2912 19.5642 25.3439C19.658 25.3059 19.7517 25.2648 19.8455 25.2268C19.7371 25.2707 19.6228 25.3 19.5086 25.3205C19.6111 25.3059 19.7166 25.2912 19.8191 25.2795C19.7547 25.2883 19.6873 25.2912 19.6199 25.2941C19.3181 25.2971 19.0076 25.423 18.7908 25.6369C18.5886 25.8391 18.4334 26.173 18.448 26.466C18.4773 27.093 18.9636 27.6467 19.6199 27.6379C20.7595 27.6203 21.7615 26.8762 22.0955 25.7834C22.2273 25.3498 22.198 24.884 22.198 24.4387C22.198 23.4191 22.2302 22.4084 22.0545 21.3977C21.7966 19.9182 21.0525 18.5266 20.033 17.4338C19.0134 16.341 17.6423 15.5383 16.1922 15.1809C15.3601 14.9758 14.5222 14.9436 13.6726 14.9436H8.47536C7.60524 14.9436 6.74098 14.9846 5.8943 15.2102C4.45583 15.591 3.10231 16.4025 2.10329 17.5041C1.09547 18.6144 0.365982 20.009 0.128677 21.4973C-0.029526 22.4963 0.00270039 23.4982 0.00270039 24.5061C0.00270039 24.9689 -0.0236666 25.4523 0.143325 25.8947C0.360122 26.4631 0.705826 26.9113 1.21266 27.2482C1.60817 27.509 2.10915 27.635 2.5779 27.6408C2.80641 27.6437 3.03493 27.6408 3.26344 27.6408H19.6228C20.2351 27.6408 20.824 27.1018 20.7947 26.4689C20.7654 25.8303 20.2791 25.2941 19.6199 25.2941Z" fill="white"/>
</svg>
