<svg width="35" height="37" viewBox="0 0 35 37" fill="none" xmlns="http://www.w3.org/2000/svg">
<path d="M30.7255 19.7342L18.7759 31.1009C15.4994 34.2176 10.2956 34.2176 7.21182 31.1009C3.93532 27.9842 3.93532 23.0342 7.21182 20.1009L22.6306 5.43424C24.558 3.78424 27.449 3.78424 29.3763 5.43424C31.3037 7.26758 31.3037 10.2009 29.3763 11.8509L16.0776 24.5009C15.4994 25.0509 14.5357 25.0509 13.9575 24.5009C13.3793 23.9509 13.3793 23.0342 13.9575 22.4842L23.787 13.1342C24.558 12.4009 24.558 11.3009 23.787 10.5676C23.0161 9.83424 21.8597 9.83424 21.0887 10.5676L11.2593 20.1009C9.13917 22.1176 9.13917 25.2342 11.2593 27.2509C13.3793 29.0842 16.6558 29.0842 18.7759 27.2509L32.0746 14.6009C35.5439 11.3009 35.5439 6.16758 32.0746 2.86758C28.6054 -0.432422 23.2088 -0.432422 19.7396 2.86758L4.32079 17.5342C2.00797 19.7342 0.851562 22.6676 0.851562 25.6009C0.851562 32.0176 6.24814 36.9676 12.9939 36.9676C16.2704 36.9676 19.1614 35.6842 21.4742 33.6676L33.4238 22.3009C34.1947 21.5676 34.1947 20.4676 33.4238 19.7342C32.6528 19.0009 31.4964 19.0009 30.7255 19.7342Z" fill="white"/>
</svg>
