<svg width="20" height="20" viewBox="0 0 20 20" fill="none" xmlns="http://www.w3.org/2000/svg">
<path d="M19.4045 16.6681L15.0735 12.3371C15.8276 11.116 16.2835 9.69168 16.2835 8.15151C16.2835 3.72811 12.6979 0.142578 8.27455 0.142578C3.85116 0.142578 0.265625 3.72811 0.265625 8.15151C0.265625 12.5749 3.85116 16.1604 8.27455 16.1604C9.81473 16.1604 11.2391 15.7045 12.4589 14.9517L16.7911 19.2827C17.1398 19.6198 17.6069 19.8064 18.0919 19.8023C18.5769 19.7981 19.0408 19.6036 19.3836 19.2606C19.7265 18.9176 19.9208 18.4536 19.9247 17.9686C19.9286 17.4836 19.7418 17.0166 19.4045 16.6681ZM8.27455 13.6961C5.21268 13.6961 2.72991 11.2134 2.72991 8.15151C2.72991 5.08963 5.21268 2.60686 8.27455 2.60686C11.3364 2.60686 13.8192 5.08963 13.8192 8.15151C13.8192 11.2134 11.3364 13.6961 8.27455 13.6961Z" fill="white"/>
</svg>
